<svg xmlns="http://www.w3.org/2000/svg" viewBox="0 0 47 47">
  <rect width="100%" height="100%" fill="#ffffff"/>
  <defs>
    <clipPath id="border-clip">
      <circle cx="23.5" cy="23.5" r="20.5"/>
    </clipPath>
  </defs>
  <g clip-path="url(#border-clip)">
    <path d="M11,11h1v1h-1z M12,11h1v1h-1z M13,11h1v1h-1z M14,11h1v1h-1z M15,11h1v1h-1z M16,11h1v1h-1z M17,11h1v1h-1z M19,11h1v1h-1z M20,11h1v1h-1z M21,11h1v1h-1z M24,11h1v1h-1z M25,11h1v1h-1z M26,11h1v1h-1z M29,11h1v1h-1z M30,11h1v1h-1z M31,11h1v1h-1z M32,11h1v1h-1z M33,11h1v1h-1z M34,11h1v1h-1z M35,11h1v1h-1z M11,12h1v1h-1z M17,12h1v1h-1z M19,12h1v1h-1z M20,12h1v1h-1z M22,12h1v1h-1z M25,12h1v1h-1z M26,12h1v1h-1z M27,12h1v1h-1z M29,12h1v1h-1z M35,12h1v1h-1z M11,13h1v1h-1z M13,13h1v1h-1z M14,13h1v1h-1z M15,13h1v1h-1z M17,13h1v1h-1z M19,13h1v1h-1z M20,13h1v1h-1z M26,13h1v1h-1z M27,13h1v1h-1z M29,13h1v1h-1z M31,13h1v1h-1z M32,13h1v1h-1z M33,13h1v1h-1z M35,13h1v1h-1z M11,14h1v1h-1z M13,14h1v1h-1z M14,14h1v1h-1z M15,14h1v1h-1z M17,14h1v1h-1z M19,14h1v1h-1z M21,14h1v1h-1z M22,14h1v1h-1z M23,14h1v1h-1z M25,14h1v1h-1z M26,14h1v1h-1z M29,14h1v1h-1z M31,14h1v1h-1z M32,14h1v1h-1z M33,14h1v1h-1z M35,14h1v1h-1z M11,15h1v1h-1z M13,15h1v1h-1z M14,15h1v1h-1z M15,15h1v1h-1z M17,15h1v1h-1z M19,15h1v1h-1z M20,15h1v1h-1z M23,15h1v1h-1z M24,15h1v1h-1z M25,15h1v1h-1z M26,15h1v1h-1z M29,15h1v1h-1z M31,15h1v1h-1z M32,15h1v1h-1z M33,15h1v1h-1z M35,15h1v1h-1z M11,16h1v1h-1z M17,16h1v1h-1z M20,16h1v1h-1z M21,16h1v1h-1z M24,16h1v1h-1z M25,16h1v1h-1z M26,16h1v1h-1z M29,16h1v1h-1z M35,16h1v1h-1z M11,17h1v1h-1z M12,17h1v1h-1z M13,17h1v1h-1z M14,17h1v1h-1z M15,17h1v1h-1z M16,17h1v1h-1z M17,17h1v1h-1z M19,17h1v1h-1z M21,17h1v1h-1z M23,17h1v1h-1z M25,17h1v1h-1z M27,17h1v1h-1z M29,17h1v1h-1z M30,17h1v1h-1z M31,17h1v1h-1z M32,17h1v1h-1z M33,17h1v1h-1z M34,17h1v1h-1z M35,17h1v1h-1z M19,18h1v1h-1z M20,18h1v1h-1z M22,18h1v1h-1z M23,18h1v1h-1z M24,18h1v1h-1z M25,18h1v1h-1z M27,18h1v1h-1z M12,19h1v1h-1z M13,19h1v1h-1z M15,19h1v1h-1z M17,19h1v1h-1z M18,19h1v1h-1z M20,19h1v1h-1z M22,19h1v1h-1z M23,19h1v1h-1z M25,19h1v1h-1z M26,19h1v1h-1z M27,19h1v1h-1z M29,19h1v1h-1z M31,19h1v1h-1z M32,19h1v1h-1z M33,19h1v1h-1z M34,19h1v1h-1z M35,19h1v1h-1z M11,20h1v1h-1z M12,20h1v1h-1z M16,20h1v1h-1z M18,20h1v1h-1z M19,20h1v1h-1z M23,20h1v1h-1z M29,20h1v1h-1z M35,20h1v1h-1z M11,21h1v1h-1z M12,21h1v1h-1z M13,21h1v1h-1z M14,21h1v1h-1z M16,21h1v1h-1z M17,21h1v1h-1z M19,21h1v1h-1z M24,21h1v1h-1z M30,21h1v1h-1z M31,21h1v1h-1z M33,21h1v1h-1z M34,21h1v1h-1z M35,21h1v1h-1z M12,22h1v1h-1z M14,22h1v1h-1z M16,22h1v1h-1z M19,22h1v1h-1z M21,22h1v1h-1z M23,22h1v1h-1z M26,22h1v1h-1z M27,22h1v1h-1z M28,22h1v1h-1z M34,22h1v1h-1z M15,23h1v1h-1z M16,23h1v1h-1z M17,23h1v1h-1z M18,23h1v1h-1z M20,23h1v1h-1z M22,23h1v1h-1z M23,23h1v1h-1z M27,23h1v1h-1z M28,23h1v1h-1z M29,23h1v1h-1z M32,23h1v1h-1z M34,23h1v1h-1z M35,23h1v1h-1z M13,24h1v1h-1z M15,24h1v1h-1z M16,24h1v1h-1z M19,24h1v1h-1z M22,24h1v1h-1z M27,24h1v1h-1z M28,24h1v1h-1z M29,24h1v1h-1z M32,24h1v1h-1z M35,24h1v1h-1z M11,25h1v1h-1z M13,25h1v1h-1z M14,25h1v1h-1z M17,25h1v1h-1z M20,25h1v1h-1z M22,25h1v1h-1z M23,25h1v1h-1z M24,25h1v1h-1z M25,25h1v1h-1z M27,25h1v1h-1z M29,25h1v1h-1z M30,25h1v1h-1z M33,25h1v1h-1z M34,25h1v1h-1z M35,25h1v1h-1z M12,26h1v1h-1z M14,26h1v1h-1z M15,26h1v1h-1z M20,26h1v1h-1z M21,26h1v1h-1z M26,26h1v1h-1z M27,26h1v1h-1z M31,26h1v1h-1z M34,26h1v1h-1z M11,27h1v1h-1z M13,27h1v1h-1z M15,27h1v1h-1z M16,27h1v1h-1z M17,27h1v1h-1z M19,27h1v1h-1z M20,27h1v1h-1z M21,27h1v1h-1z M23,27h1v1h-1z M24,27h1v1h-1z M26,27h1v1h-1z M27,27h1v1h-1z M28,27h1v1h-1z M29,27h1v1h-1z M30,27h1v1h-1z M31,27h1v1h-1z M32,27h1v1h-1z M19,28h1v1h-1z M20,28h1v1h-1z M23,28h1v1h-1z M24,28h1v1h-1z M26,28h1v1h-1z M27,28h1v1h-1z M31,28h1v1h-1z M32,28h1v1h-1z M34,28h1v1h-1z M35,28h1v1h-1z M11,29h1v1h-1z M12,29h1v1h-1z M13,29h1v1h-1z M14,29h1v1h-1z M15,29h1v1h-1z M16,29h1v1h-1z M17,29h1v1h-1z M19,29h1v1h-1z M20,29h1v1h-1z M21,29h1v1h-1z M23,29h1v1h-1z M24,29h1v1h-1z M26,29h1v1h-1z M27,29h1v1h-1z M29,29h1v1h-1z M31,29h1v1h-1z M32,29h1v1h-1z M34,29h1v1h-1z M35,29h1v1h-1z M11,30h1v1h-1z M17,30h1v1h-1z M21,30h1v1h-1z M22,30h1v1h-1z M23,30h1v1h-1z M25,30h1v1h-1z M27,30h1v1h-1z M31,30h1v1h-1z M32,30h1v1h-1z M35,30h1v1h-1z M11,31h1v1h-1z M13,31h1v1h-1z M14,31h1v1h-1z M15,31h1v1h-1z M17,31h1v1h-1z M19,31h1v1h-1z M21,31h1v1h-1z M24,31h1v1h-1z M25,31h1v1h-1z M27,31h1v1h-1z M28,31h1v1h-1z M29,31h1v1h-1z M30,31h1v1h-1z M31,31h1v1h-1z M32,31h1v1h-1z M35,31h1v1h-1z M11,32h1v1h-1z M13,32h1v1h-1z M14,32h1v1h-1z M15,32h1v1h-1z M17,32h1v1h-1z M21,32h1v1h-1z M25,32h1v1h-1z M26,32h1v1h-1z M30,32h1v1h-1z M31,32h1v1h-1z M32,32h1v1h-1z M33,32h1v1h-1z M11,33h1v1h-1z M13,33h1v1h-1z M14,33h1v1h-1z M15,33h1v1h-1z M17,33h1v1h-1z M19,33h1v1h-1z M20,33h1v1h-1z M22,33h1v1h-1z M27,33h1v1h-1z M31,33h1v1h-1z M35,33h1v1h-1z M11,34h1v1h-1z M17,34h1v1h-1z M19,34h1v1h-1z M20,34h1v1h-1z M21,34h1v1h-1z M22,34h1v1h-1z M24,34h1v1h-1z M25,34h1v1h-1z M27,34h1v1h-1z M29,34h1v1h-1z M31,34h1v1h-1z M32,34h1v1h-1z M34,34h1v1h-1z M11,35h1v1h-1z M12,35h1v1h-1z M13,35h1v1h-1z M14,35h1v1h-1z M15,35h1v1h-1z M16,35h1v1h-1z M17,35h1v1h-1z M24,35h1v1h-1z M25,35h1v1h-1z M26,35h1v1h-1z M27,35h1v1h-1z M28,35h1v1h-1z M29,35h1v1h-1z M30,35h1v1h-1z M34,35h1v1h-1z M35,35h1v1h-1z" fill="#000000"/>
    <!-- top center -->
    <path d="M24,-15h1v1h-1z M25,-15h1v1h-1z M26,-15h1v1h-1z M27,-15h1v1h-1z M19,-14h1v1h-1z M20,-14h1v1h-1z M21,-14h1v1h-1z M22,-14h1v1h-1z M24,-14h1v1h-1z M25,-14h1v1h-1z M27,-14h1v1h-1z M19,-13h1v1h-1z M20,-13h1v1h-1z M22,-13h1v1h-1z M27,-13h1v1h-1z M21,-12h1v1h-1z M25,-12h1v1h-1z M26,-12h1v1h-1z M19,-11h1v1h-1z M21,-11h1v1h-1z M24,-11h1v1h-1z M25,-11h1v1h-1z M27,-11h1v1h-1z M21,-10h1v1h-1z M22,-10h1v1h-1z M23,-10h1v1h-1z M25,-10h1v1h-1z M27,-10h1v1h-1z M19,-9h1v1h-1z M20,-9h1v1h-1z M21,-9h1v1h-1z M23,-9h1v1h-1z M24,-9h1v1h-1z M26,-9h1v1h-1z M27,-9h1v1h-1z M19,-8h1v1h-1z M20,-8h1v1h-1z M23,-8h1v1h-1z M24,-8h1v1h-1z M26,-8h1v1h-1z M27,-8h1v1h-1z M19,-7h1v1h-1z M20,-7h1v1h-1z M21,-7h1v1h-1z M23,-7h1v1h-1z M24,-7h1v1h-1z M26,-7h1v1h-1z M27,-7h1v1h-1z M20,-6h1v1h-1z M21,-6h1v1h-1z M26,-6h1v1h-1z M27,-6h1v1h-1z M20,-5h1v1h-1z M22,-5h1v1h-1z M23,-5h1v1h-1z M24,-5h1v1h-1z M25,-5h1v1h-1z M27,-5h1v1h-1z M19,-4h1v1h-1z M22,-4h1v1h-1z M27,-4h1v1h-1z M20,-3h1v1h-1z M22,-3h1v1h-1z M23,-3h1v1h-1z M27,-3h1v1h-1z M19,-2h1v1h-1z M21,-2h1v1h-1z M23,-2h1v1h-1z M26,-2h1v1h-1z M27,-2h1v1h-1z M19,-1h1v1h-1z M24,-1h1v1h-1z M19,0h1v1h-1z M23,0h1v1h-1z M20,1h1v1h-1z M22,1h1v1h-1z M23,1h1v1h-1z M25,1h1v1h-1z M26,1h1v1h-1z M27,1h1v1h-1z M19,2h1v1h-1z M20,2h1v1h-1z M22,2h1v1h-1z M23,2h1v1h-1z M24,2h1v1h-1z M25,2h1v1h-1z M27,2h1v1h-1z M19,3h1v1h-1z M21,3h1v1h-1z M23,3h1v1h-1z M25,3h1v1h-1z M27,3h1v1h-1z M20,4h1v1h-1z M21,4h1v1h-1z M24,4h1v1h-1z M25,4h1v1h-1z M26,4h1v1h-1z M19,5h1v1h-1z M20,5h1v1h-1z M23,5h1v1h-1z M24,5h1v1h-1z M25,5h1v1h-1z M26,5h1v1h-1z M19,6h1v1h-1z M21,6h1v1h-1z M22,6h1v1h-1z M23,6h1v1h-1z M25,6h1v1h-1z M26,6h1v1h-1z M19,7h1v1h-1z M20,7h1v1h-1z M26,7h1v1h-1z M27,7h1v1h-1z M19,8h1v1h-1z M20,8h1v1h-1z M22,8h1v1h-1z M25,8h1v1h-1z M26,8h1v1h-1z M27,8h1v1h-1z M19,9h1v1h-1z M20,9h1v1h-1z M21,9h1v1h-1z M24,9h1v1h-1z M25,9h1v1h-1z M26,9h1v1h-1z" fill="#000000"/>
    <!-- top left -->
    <path d="M9,-15h1v1h-1z M10,-15h1v1h-1z M11,-15h1v1h-1z M12,-15h1v1h-1z M9,-14h1v1h-1z M11,-14h1v1h-1z M12,-14h1v1h-1z M14,-14h1v1h-1z M15,-14h1v1h-1z M16,-14h1v1h-1z M17,-14h1v1h-1z M9,-13h1v1h-1z M14,-13h1v1h-1z M16,-13h1v1h-1z M17,-13h1v1h-1z M10,-12h1v1h-1z M11,-12h1v1h-1z M15,-12h1v1h-1z M9,-11h1v1h-1z M11,-11h1v1h-1z M12,-11h1v1h-1z M15,-11h1v1h-1z M17,-11h1v1h-1z M9,-10h1v1h-1z M11,-10h1v1h-1z M13,-10h1v1h-1z M14,-10h1v1h-1z M15,-10h1v1h-1z M9,-9h1v1h-1z M10,-9h1v1h-1z M12,-9h1v1h-1z M13,-9h1v1h-1z M15,-9h1v1h-1z M16,-9h1v1h-1z M17,-9h1v1h-1z M9,-8h1v1h-1z M10,-8h1v1h-1z M12,-8h1v1h-1z M13,-8h1v1h-1z M16,-8h1v1h-1z M17,-8h1v1h-1z M9,-7h1v1h-1z M10,-7h1v1h-1z M12,-7h1v1h-1z M13,-7h1v1h-1z M15,-7h1v1h-1z M16,-7h1v1h-1z M17,-7h1v1h-1z M9,-6h1v1h-1z M10,-6h1v1h-1z M15,-6h1v1h-1z M16,-6h1v1h-1z M9,-5h1v1h-1z M11,-5h1v1h-1z M12,-5h1v1h-1z M13,-5h1v1h-1z M14,-5h1v1h-1z M16,-5h1v1h-1z M9,-4h1v1h-1z M14,-4h1v1h-1z M17,-4h1v1h-1z M9,-3h1v1h-1z M13,-3h1v1h-1z M14,-3h1v1h-1z M16,-3h1v1h-1z M9,-2h1v1h-1z M10,-2h1v1h-1z M13,-2h1v1h-1z M15,-2h1v1h-1z M17,-2h1v1h-1z M12,-1h1v1h-1z M17,-1h1v1h-1z M13,0h1v1h-1z M17,0h1v1h-1z M9,1h1v1h-1z M10,1h1v1h-1z M11,1h1v1h-1z M13,1h1v1h-1z M14,1h1v1h-1z M16,1h1v1h-1z M9,2h1v1h-1z M11,2h1v1h-1z M12,2h1v1h-1z M13,2h1v1h-1z M14,2h1v1h-1z M16,2h1v1h-1z M17,2h1v1h-1z M9,3h1v1h-1z M11,3h1v1h-1z M13,3h1v1h-1z M15,3h1v1h-1z M17,3h1v1h-1z M10,4h1v1h-1z M11,4h1v1h-1z M12,4h1v1h-1z M15,4h1v1h-1z M16,4h1v1h-1z M10,5h1v1h-1z M11,5h1v1h-1z M12,5h1v1h-1z M13,5h1v1h-1z M16,5h1v1h-1z M17,5h1v1h-1z M10,6h1v1h-1z M11,6h1v1h-1z M13,6h1v1h-1z M14,6h1v1h-1z M15,6h1v1h-1z M17,6h1v1h-1z M9,7h1v1h-1z M10,7h1v1h-1z M16,7h1v1h-1z M17,7h1v1h-1z M9,8h1v1h-1z M10,8h1v1h-1z M11,8h1v1h-1z M14,8h1v1h-1z M16,8h1v1h-1z M17,8h1v1h-1z M10,9h1v1h-1z M11,9h1v1h-1z M12,9h1v1h-1z M15,9h1v1h-1z M16,9h1v1h-1z M17,9h1v1h-1z" fill="#000000"/>
    <!-- top right -->
    <path d="M29,-15h1v1h-1z M30,-15h1v1h-1z M31,-15h1v1h-1z M32,-15h1v1h-1z M29,-14h1v1h-1z M31,-14h1v1h-1z M32,-14h1v1h-1z M34,-14h1v1h-1z M35,-14h1v1h-1z M36,-14h1v1h-1z M37,-14h1v1h-1z M29,-13h1v1h-1z M34,-13h1v1h-1z M36,-13h1v1h-1z M37,-13h1v1h-1z M30,-12h1v1h-1z M31,-12h1v1h-1z M35,-12h1v1h-1z M29,-11h1v1h-1z M31,-11h1v1h-1z M32,-11h1v1h-1z M35,-11h1v1h-1z M37,-11h1v1h-1z M29,-10h1v1h-1z M31,-10h1v1h-1z M33,-10h1v1h-1z M34,-10h1v1h-1z M35,-10h1v1h-1z M29,-9h1v1h-1z M30,-9h1v1h-1z M32,-9h1v1h-1z M33,-9h1v1h-1z M35,-9h1v1h-1z M36,-9h1v1h-1z M37,-9h1v1h-1z M29,-8h1v1h-1z M30,-8h1v1h-1z M32,-8h1v1h-1z M33,-8h1v1h-1z M36,-8h1v1h-1z M37,-8h1v1h-1z M29,-7h1v1h-1z M30,-7h1v1h-1z M32,-7h1v1h-1z M33,-7h1v1h-1z M35,-7h1v1h-1z M36,-7h1v1h-1z M37,-7h1v1h-1z M29,-6h1v1h-1z M30,-6h1v1h-1z M35,-6h1v1h-1z M36,-6h1v1h-1z M29,-5h1v1h-1z M31,-5h1v1h-1z M32,-5h1v1h-1z M33,-5h1v1h-1z M34,-5h1v1h-1z M36,-5h1v1h-1z M29,-4h1v1h-1z M34,-4h1v1h-1z M37,-4h1v1h-1z M29,-3h1v1h-1z M33,-3h1v1h-1z M34,-3h1v1h-1z M36,-3h1v1h-1z M29,-2h1v1h-1z M30,-2h1v1h-1z M33,-2h1v1h-1z M35,-2h1v1h-1z M37,-2h1v1h-1z M32,-1h1v1h-1z M37,-1h1v1h-1z M33,0h1v1h-1z M37,0h1v1h-1z M29,1h1v1h-1z M30,1h1v1h-1z M31,1h1v1h-1z M33,1h1v1h-1z M34,1h1v1h-1z M36,1h1v1h-1z M29,2h1v1h-1z M31,2h1v1h-1z M32,2h1v1h-1z M33,2h1v1h-1z M34,2h1v1h-1z M36,2h1v1h-1z M37,2h1v1h-1z M29,3h1v1h-1z M31,3h1v1h-1z M33,3h1v1h-1z M35,3h1v1h-1z M37,3h1v1h-1z M30,4h1v1h-1z M31,4h1v1h-1z M32,4h1v1h-1z M35,4h1v1h-1z M36,4h1v1h-1z M30,5h1v1h-1z M31,5h1v1h-1z M32,5h1v1h-1z M33,5h1v1h-1z M36,5h1v1h-1z M37,5h1v1h-1z M30,6h1v1h-1z M31,6h1v1h-1z M33,6h1v1h-1z M34,6h1v1h-1z M35,6h1v1h-1z M37,6h1v1h-1z M29,7h1v1h-1z M30,7h1v1h-1z M36,7h1v1h-1z M37,7h1v1h-1z M29,8h1v1h-1z M30,8h1v1h-1z M31,8h1v1h-1z M34,8h1v1h-1z M36,8h1v1h-1z M37,8h1v1h-1z M30,9h1v1h-1z M31,9h1v1h-1z M32,9h1v1h-1z M35,9h1v1h-1z M36,9h1v1h-1z" fill="#000000"/>
    <!-- top left -->
    <path d="M4,-15h1v1h-1z M5,-15h1v1h-1z M6,-15h1v1h-1z M7,-15h1v1h-1z M-1,-14h1v1h-1z M0,-14h1v1h-1z M1,-14h1v1h-1z M2,-14h1v1h-1z M4,-14h1v1h-1z M5,-14h1v1h-1z M7,-14h1v1h-1z M-1,-13h1v1h-1z M0,-13h1v1h-1z M2,-13h1v1h-1z M7,-13h1v1h-1z M1,-12h1v1h-1z M5,-12h1v1h-1z M6,-12h1v1h-1z M-1,-11h1v1h-1z M1,-11h1v1h-1z M4,-11h1v1h-1z M5,-11h1v1h-1z M7,-11h1v1h-1z M1,-10h1v1h-1z M2,-10h1v1h-1z M3,-10h1v1h-1z M5,-10h1v1h-1z M7,-10h1v1h-1z M-1,-9h1v1h-1z M0,-9h1v1h-1z M1,-9h1v1h-1z M3,-9h1v1h-1z M4,-9h1v1h-1z M6,-9h1v1h-1z M7,-9h1v1h-1z M-1,-8h1v1h-1z M0,-8h1v1h-1z M3,-8h1v1h-1z M4,-8h1v1h-1z M6,-8h1v1h-1z M7,-8h1v1h-1z M-1,-7h1v1h-1z M0,-7h1v1h-1z M1,-7h1v1h-1z M3,-7h1v1h-1z M4,-7h1v1h-1z M6,-7h1v1h-1z M7,-7h1v1h-1z M0,-6h1v1h-1z M1,-6h1v1h-1z M6,-6h1v1h-1z M7,-6h1v1h-1z M0,-5h1v1h-1z M2,-5h1v1h-1z M3,-5h1v1h-1z M4,-5h1v1h-1z M5,-5h1v1h-1z M7,-5h1v1h-1z M-1,-4h1v1h-1z M2,-4h1v1h-1z M7,-4h1v1h-1z M0,-3h1v1h-1z M2,-3h1v1h-1z M3,-3h1v1h-1z M7,-3h1v1h-1z M-1,-2h1v1h-1z M1,-2h1v1h-1z M3,-2h1v1h-1z M6,-2h1v1h-1z M7,-2h1v1h-1z M4,-1h1v1h-1z M3,0h1v1h-1z M2,1h1v1h-1z M3,1h1v1h-1z M5,1h1v1h-1z M6,1h1v1h-1z M7,1h1v1h-1z M3,2h1v1h-1z M4,2h1v1h-1z M5,2h1v1h-1z M7,2h1v1h-1z M5,3h1v1h-1z M7,3h1v1h-1z M5,4h1v1h-1z M6,4h1v1h-1z M6,5h1v1h-1z" fill="#000000"/>
    <!-- top right -->
    <path d="M44,-15h1v1h-1z M45,-15h1v1h-1z M46,-15h1v1h-1z M47,-15h1v1h-1z M39,-14h1v1h-1z M40,-14h1v1h-1z M41,-14h1v1h-1z M42,-14h1v1h-1z M44,-14h1v1h-1z M45,-14h1v1h-1z M47,-14h1v1h-1z M39,-13h1v1h-1z M40,-13h1v1h-1z M42,-13h1v1h-1z M47,-13h1v1h-1z M41,-12h1v1h-1z M45,-12h1v1h-1z M46,-12h1v1h-1z M39,-11h1v1h-1z M41,-11h1v1h-1z M44,-11h1v1h-1z M45,-11h1v1h-1z M47,-11h1v1h-1z M41,-10h1v1h-1z M42,-10h1v1h-1z M43,-10h1v1h-1z M45,-10h1v1h-1z M47,-10h1v1h-1z M39,-9h1v1h-1z M40,-9h1v1h-1z M41,-9h1v1h-1z M43,-9h1v1h-1z M44,-9h1v1h-1z M46,-9h1v1h-1z M47,-9h1v1h-1z M39,-8h1v1h-1z M40,-8h1v1h-1z M43,-8h1v1h-1z M44,-8h1v1h-1z M46,-8h1v1h-1z M47,-8h1v1h-1z M39,-7h1v1h-1z M40,-7h1v1h-1z M41,-7h1v1h-1z M43,-7h1v1h-1z M44,-7h1v1h-1z M46,-7h1v1h-1z M47,-7h1v1h-1z M40,-6h1v1h-1z M41,-6h1v1h-1z M46,-6h1v1h-1z M47,-6h1v1h-1z M40,-5h1v1h-1z M42,-5h1v1h-1z M43,-5h1v1h-1z M44,-5h1v1h-1z M45,-5h1v1h-1z M47,-5h1v1h-1z M39,-4h1v1h-1z M42,-4h1v1h-1z M47,-4h1v1h-1z M40,-3h1v1h-1z M42,-3h1v1h-1z M43,-3h1v1h-1z M47,-3h1v1h-1z M39,-2h1v1h-1z M41,-2h1v1h-1z M43,-2h1v1h-1z M46,-2h1v1h-1z M47,-2h1v1h-1z M39,-1h1v1h-1z M44,-1h1v1h-1z M39,0h1v1h-1z M43,0h1v1h-1z M40,1h1v1h-1z M42,1h1v1h-1z M43,1h1v1h-1z M39,2h1v1h-1z M40,2h1v1h-1z M42,2h1v1h-1z M43,2h1v1h-1z M39,3h1v1h-1z M41,3h1v1h-1z M40,4h1v1h-1z M41,4h1v1h-1z M39,5h1v1h-1z M40,5h1v1h-1z M39,6h1v1h-1z" fill="#000000"/>
    <!-- bottom center -->
    <path d="M24,37h1v1h-1z M25,37h1v1h-1z M26,37h1v1h-1z M27,37h1v1h-1z M28,37h1v1h-1z M29,37h1v1h-1z M30,37h1v1h-1z M34,37h1v1h-1z M35,37h1v1h-1z M19,38h1v1h-1z M20,38h1v1h-1z M21,38h1v1h-1z M22,38h1v1h-1z M24,38h1v1h-1z M25,38h1v1h-1z M27,38h1v1h-1z M29,38h1v1h-1z M31,38h1v1h-1z M32,38h1v1h-1z M34,38h1v1h-1z M19,39h1v1h-1z M20,39h1v1h-1z M22,39h1v1h-1z M27,39h1v1h-1z M31,39h1v1h-1z M35,39h1v1h-1z M21,40h1v1h-1z M25,40h1v1h-1z M26,40h1v1h-1z M30,40h1v1h-1z M31,40h1v1h-1z M32,40h1v1h-1z M33,40h1v1h-1z M19,41h1v1h-1z M21,41h1v1h-1z M24,41h1v1h-1z M25,41h1v1h-1z M27,41h1v1h-1z M28,41h1v1h-1z M29,41h1v1h-1z M30,41h1v1h-1z M31,41h1v1h-1z M32,41h1v1h-1z M35,41h1v1h-1z M21,42h1v1h-1z M22,42h1v1h-1z M23,42h1v1h-1z M25,42h1v1h-1z M27,42h1v1h-1z M31,42h1v1h-1z M32,42h1v1h-1z M35,42h1v1h-1z M19,43h1v1h-1z M20,43h1v1h-1z M21,43h1v1h-1z M23,43h1v1h-1z M24,43h1v1h-1z M26,43h1v1h-1z M27,43h1v1h-1z M29,43h1v1h-1z M31,43h1v1h-1z M32,43h1v1h-1z M34,43h1v1h-1z M35,43h1v1h-1z M19,44h1v1h-1z M20,44h1v1h-1z M23,44h1v1h-1z M24,44h1v1h-1z M26,44h1v1h-1z M27,44h1v1h-1z M31,44h1v1h-1z M32,44h1v1h-1z M34,44h1v1h-1z M35,44h1v1h-1z M19,45h1v1h-1z M20,45h1v1h-1z M21,45h1v1h-1z M23,45h1v1h-1z M24,45h1v1h-1z M26,45h1v1h-1z M27,45h1v1h-1z M28,45h1v1h-1z M29,45h1v1h-1z M30,45h1v1h-1z M31,45h1v1h-1z M32,45h1v1h-1z M20,46h1v1h-1z M21,46h1v1h-1z M26,46h1v1h-1z M27,46h1v1h-1z M31,46h1v1h-1z M34,46h1v1h-1z M20,47h1v1h-1z M22,47h1v1h-1z M23,47h1v1h-1z M24,47h1v1h-1z M25,47h1v1h-1z M27,47h1v1h-1z M29,47h1v1h-1z M30,47h1v1h-1z M33,47h1v1h-1z M34,47h1v1h-1z M35,47h1v1h-1z M19,48h1v1h-1z M22,48h1v1h-1z M27,48h1v1h-1z M28,48h1v1h-1z M29,48h1v1h-1z M32,48h1v1h-1z M35,48h1v1h-1z M20,49h1v1h-1z M22,49h1v1h-1z M23,49h1v1h-1z M27,49h1v1h-1z M28,49h1v1h-1z M29,49h1v1h-1z M32,49h1v1h-1z M34,49h1v1h-1z M35,49h1v1h-1z M19,50h1v1h-1z M21,50h1v1h-1z M23,50h1v1h-1z M26,50h1v1h-1z M27,50h1v1h-1z M28,50h1v1h-1z M34,50h1v1h-1z M19,51h1v1h-1z M24,51h1v1h-1z M30,51h1v1h-1z M31,51h1v1h-1z M33,51h1v1h-1z M34,51h1v1h-1z M35,51h1v1h-1z M19,52h1v1h-1z M23,52h1v1h-1z M29,52h1v1h-1z M35,52h1v1h-1z M20,53h1v1h-1z M22,53h1v1h-1z M23,53h1v1h-1z M25,53h1v1h-1z M26,53h1v1h-1z M27,53h1v1h-1z M29,53h1v1h-1z M31,53h1v1h-1z M32,53h1v1h-1z M33,53h1v1h-1z M34,53h1v1h-1z M35,53h1v1h-1z M19,54h1v1h-1z M20,54h1v1h-1z M22,54h1v1h-1z M23,54h1v1h-1z M24,54h1v1h-1z M25,54h1v1h-1z M27,54h1v1h-1z M19,55h1v1h-1z M21,55h1v1h-1z M23,55h1v1h-1z M25,55h1v1h-1z M27,55h1v1h-1z M29,55h1v1h-1z M30,55h1v1h-1z M31,55h1v1h-1z M32,55h1v1h-1z M33,55h1v1h-1z M34,55h1v1h-1z M35,55h1v1h-1z M20,56h1v1h-1z M21,56h1v1h-1z M24,56h1v1h-1z M25,56h1v1h-1z M26,56h1v1h-1z M29,56h1v1h-1z M35,56h1v1h-1z M19,57h1v1h-1z M20,57h1v1h-1z M23,57h1v1h-1z M24,57h1v1h-1z M25,57h1v1h-1z M26,57h1v1h-1z M29,57h1v1h-1z M31,57h1v1h-1z M32,57h1v1h-1z M33,57h1v1h-1z M35,57h1v1h-1z M19,58h1v1h-1z M21,58h1v1h-1z M22,58h1v1h-1z M23,58h1v1h-1z M25,58h1v1h-1z M26,58h1v1h-1z M29,58h1v1h-1z M31,58h1v1h-1z M32,58h1v1h-1z M33,58h1v1h-1z M35,58h1v1h-1z M19,59h1v1h-1z M20,59h1v1h-1z M26,59h1v1h-1z M27,59h1v1h-1z M29,59h1v1h-1z M31,59h1v1h-1z M32,59h1v1h-1z M33,59h1v1h-1z M35,59h1v1h-1z M19,60h1v1h-1z M20,60h1v1h-1z M22,60h1v1h-1z M25,60h1v1h-1z M26,60h1v1h-1z M27,60h1v1h-1z M29,60h1v1h-1z M35,60h1v1h-1z M19,61h1v1h-1z M20,61h1v1h-1z M21,61h1v1h-1z M24,61h1v1h-1z M25,61h1v1h-1z M26,61h1v1h-1z M29,61h1v1h-1z M30,61h1v1h-1z M31,61h1v1h-1z M32,61h1v1h-1z M33,61h1v1h-1z M34,61h1v1h-1z M35,61h1v1h-1z" fill="#000000"/>
    <!-- bottom left -->
    <path d="M10,37h1v1h-1z M11,37h1v1h-1z M12,37h1v1h-1z M9,38h1v1h-1z M11,38h1v1h-1z M12,38h1v1h-1z M14,38h1v1h-1z M15,38h1v1h-1z M16,38h1v1h-1z M17,38h1v1h-1z M9,39h1v1h-1z M14,39h1v1h-1z M16,39h1v1h-1z M17,39h1v1h-1z M10,40h1v1h-1z M11,40h1v1h-1z M15,40h1v1h-1z M6,41h1v1h-1z M7,41h1v1h-1z M8,41h1v1h-1z M9,41h1v1h-1z M11,41h1v1h-1z M12,41h1v1h-1z M15,41h1v1h-1z M17,41h1v1h-1z M5,42h1v1h-1z M9,42h1v1h-1z M11,42h1v1h-1z M13,42h1v1h-1z M14,42h1v1h-1z M15,42h1v1h-1z M4,43h1v1h-1z M5,43h1v1h-1z M7,43h1v1h-1z M9,43h1v1h-1z M10,43h1v1h-1z M12,43h1v1h-1z M13,43h1v1h-1z M15,43h1v1h-1z M16,43h1v1h-1z M17,43h1v1h-1z M4,44h1v1h-1z M5,44h1v1h-1z M9,44h1v1h-1z M10,44h1v1h-1z M12,44h1v1h-1z M13,44h1v1h-1z M16,44h1v1h-1z M17,44h1v1h-1z M4,45h1v1h-1z M5,45h1v1h-1z M6,45h1v1h-1z M7,45h1v1h-1z M8,45h1v1h-1z M9,45h1v1h-1z M10,45h1v1h-1z M12,45h1v1h-1z M13,45h1v1h-1z M15,45h1v1h-1z M16,45h1v1h-1z M17,45h1v1h-1z M2,46h1v1h-1z M5,46h1v1h-1z M9,46h1v1h-1z M10,46h1v1h-1z M15,46h1v1h-1z M16,46h1v1h-1z M1,47h1v1h-1z M2,47h1v1h-1z M3,47h1v1h-1z M6,47h1v1h-1z M7,47h1v1h-1z M9,47h1v1h-1z M11,47h1v1h-1z M12,47h1v1h-1z M13,47h1v1h-1z M14,47h1v1h-1z M16,47h1v1h-1z M1,48h1v1h-1z M4,48h1v1h-1z M7,48h1v1h-1z M8,48h1v1h-1z M9,48h1v1h-1z M14,48h1v1h-1z M17,48h1v1h-1z M1,49h1v1h-1z M2,49h1v1h-1z M4,49h1v1h-1z M7,49h1v1h-1z M8,49h1v1h-1z M9,49h1v1h-1z M13,49h1v1h-1z M14,49h1v1h-1z M16,49h1v1h-1z M2,50h1v1h-1z M8,50h1v1h-1z M9,50h1v1h-1z M10,50h1v1h-1z M13,50h1v1h-1z M15,50h1v1h-1z M17,50h1v1h-1z M1,51h1v1h-1z M2,51h1v1h-1z M3,51h1v1h-1z M5,51h1v1h-1z M6,51h1v1h-1z M12,51h1v1h-1z M17,51h1v1h-1z M1,52h1v1h-1z M7,52h1v1h-1z M13,52h1v1h-1z M17,52h1v1h-1z M1,53h1v1h-1z M2,53h1v1h-1z M3,53h1v1h-1z M4,53h1v1h-1z M5,53h1v1h-1z M7,53h1v1h-1z M9,53h1v1h-1z M10,53h1v1h-1z M11,53h1v1h-1z M13,53h1v1h-1z M14,53h1v1h-1z M16,53h1v1h-1z M9,54h1v1h-1z M11,54h1v1h-1z M12,54h1v1h-1z M13,54h1v1h-1z M14,54h1v1h-1z M16,54h1v1h-1z M17,54h1v1h-1z M1,55h1v1h-1z M2,55h1v1h-1z M3,55h1v1h-1z M4,55h1v1h-1z M5,55h1v1h-1z M6,55h1v1h-1z M7,55h1v1h-1z M9,55h1v1h-1z M11,55h1v1h-1z M13,55h1v1h-1z M15,55h1v1h-1z M17,55h1v1h-1z M1,56h1v1h-1z M7,56h1v1h-1z M10,56h1v1h-1z M11,56h1v1h-1z M12,56h1v1h-1z M15,56h1v1h-1z M16,56h1v1h-1z M1,57h1v1h-1z M3,57h1v1h-1z M4,57h1v1h-1z M5,57h1v1h-1z M7,57h1v1h-1z M10,57h1v1h-1z M11,57h1v1h-1z M12,57h1v1h-1z M13,57h1v1h-1z M16,57h1v1h-1z M17,57h1v1h-1z M1,58h1v1h-1z M3,58h1v1h-1z M4,58h1v1h-1z M5,58h1v1h-1z M7,58h1v1h-1z M10,58h1v1h-1z M11,58h1v1h-1z M13,58h1v1h-1z M14,58h1v1h-1z M15,58h1v1h-1z M17,58h1v1h-1z M1,59h1v1h-1z M3,59h1v1h-1z M4,59h1v1h-1z M5,59h1v1h-1z M7,59h1v1h-1z M9,59h1v1h-1z M10,59h1v1h-1z M16,59h1v1h-1z M17,59h1v1h-1z M1,60h1v1h-1z M7,60h1v1h-1z M9,60h1v1h-1z M10,60h1v1h-1z M11,60h1v1h-1z M14,60h1v1h-1z M16,60h1v1h-1z M17,60h1v1h-1z M1,61h1v1h-1z M2,61h1v1h-1z M3,61h1v1h-1z M4,61h1v1h-1z M5,61h1v1h-1z M6,61h1v1h-1z M7,61h1v1h-1z M10,61h1v1h-1z M11,61h1v1h-1z M12,61h1v1h-1z M15,61h1v1h-1z M16,61h1v1h-1z M17,61h1v1h-1z" fill="#000000"/>
    <!-- bottom right -->
    <path d="M37,39h1v1h-1z M39,40h1v1h-1z M37,41h1v1h-1z M40,41h1v1h-1z M37,42h1v1h-1z M40,42h1v1h-1z M41,42h1v1h-1z M37,43h1v1h-1z M38,43h1v1h-1z M40,43h1v1h-1z M41,43h1v1h-1z M37,44h1v1h-1z M38,44h1v1h-1z M40,44h1v1h-1z M41,44h1v1h-1z M40,45h1v1h-1z M41,45h1v1h-1z M42,45h1v1h-1z M43,45h1v1h-1z M44,45h1v1h-1z M38,46h1v1h-1z M41,46h1v1h-1z M45,46h1v1h-1z M37,47h1v1h-1z M38,47h1v1h-1z M39,47h1v1h-1z M42,47h1v1h-1z M43,47h1v1h-1z M45,47h1v1h-1z M37,48h1v1h-1z M40,48h1v1h-1z M43,48h1v1h-1z M44,48h1v1h-1z M45,48h1v1h-1z M37,49h1v1h-1z M38,49h1v1h-1z M40,49h1v1h-1z M43,49h1v1h-1z M44,49h1v1h-1z M45,49h1v1h-1z M38,50h1v1h-1z M44,50h1v1h-1z M45,50h1v1h-1z M46,50h1v1h-1z M49,50h1v1h-1z M37,51h1v1h-1z M38,51h1v1h-1z M39,51h1v1h-1z M41,51h1v1h-1z M42,51h1v1h-1z M48,51h1v1h-1z M37,52h1v1h-1z M43,52h1v1h-1z M49,52h1v1h-1z M37,53h1v1h-1z M38,53h1v1h-1z M39,53h1v1h-1z M40,53h1v1h-1z M41,53h1v1h-1z M43,53h1v1h-1z M45,53h1v1h-1z M46,53h1v1h-1z M47,53h1v1h-1z M49,53h1v1h-1z M50,53h1v1h-1z M52,53h1v1h-1z M45,54h1v1h-1z M47,54h1v1h-1z M48,54h1v1h-1z M49,54h1v1h-1z M50,54h1v1h-1z M52,54h1v1h-1z M53,54h1v1h-1z M37,55h1v1h-1z M38,55h1v1h-1z M39,55h1v1h-1z M40,55h1v1h-1z M41,55h1v1h-1z M42,55h1v1h-1z M43,55h1v1h-1z M45,55h1v1h-1z M47,55h1v1h-1z M49,55h1v1h-1z M51,55h1v1h-1z M53,55h1v1h-1z M37,56h1v1h-1z M43,56h1v1h-1z M46,56h1v1h-1z M47,56h1v1h-1z M48,56h1v1h-1z M51,56h1v1h-1z M52,56h1v1h-1z M37,57h1v1h-1z M39,57h1v1h-1z M40,57h1v1h-1z M41,57h1v1h-1z M43,57h1v1h-1z M46,57h1v1h-1z M47,57h1v1h-1z M48,57h1v1h-1z M49,57h1v1h-1z M52,57h1v1h-1z M53,57h1v1h-1z M37,58h1v1h-1z M39,58h1v1h-1z M40,58h1v1h-1z M41,58h1v1h-1z M43,58h1v1h-1z M46,58h1v1h-1z M47,58h1v1h-1z M49,58h1v1h-1z M50,58h1v1h-1z M51,58h1v1h-1z M53,58h1v1h-1z M37,59h1v1h-1z M39,59h1v1h-1z M40,59h1v1h-1z M41,59h1v1h-1z M43,59h1v1h-1z M45,59h1v1h-1z M46,59h1v1h-1z M52,59h1v1h-1z M53,59h1v1h-1z M37,60h1v1h-1z M43,60h1v1h-1z M45,60h1v1h-1z M46,60h1v1h-1z M47,60h1v1h-1z M50,60h1v1h-1z M52,60h1v1h-1z M53,60h1v1h-1z M37,61h1v1h-1z M38,61h1v1h-1z M39,61h1v1h-1z M40,61h1v1h-1z M41,61h1v1h-1z M42,61h1v1h-1z M43,61h1v1h-1z M46,61h1v1h-1z M47,61h1v1h-1z M48,61h1v1h-1z M51,61h1v1h-1z M52,61h1v1h-1z M53,61h1v1h-1z" fill="#000000"/>
    <!-- left center -->
    <path d="M-15,19h1v1h-1z M-14,19h1v1h-1z M-13,19h1v1h-1z M-12,19h1v1h-1z M-11,19h1v1h-1z M-9,19h1v1h-1z M-7,19h1v1h-1z M-6,19h1v1h-1z M-5,19h1v1h-1z M-3,19h1v1h-1z M-2,19h1v1h-1z M0,19h1v1h-1z M2,19h1v1h-1z M3,19h1v1h-1z M5,19h1v1h-1z M7,19h1v1h-1z M8,19h1v1h-1z M-15,20h1v1h-1z M-9,20h1v1h-1z M-3,20h1v1h-1z M1,20h1v1h-1z M2,20h1v1h-1z M4,20h1v1h-1z M8,20h1v1h-1z M9,20h1v1h-1z M-15,21h1v1h-1z M-14,21h1v1h-1z M-13,21h1v1h-1z M-11,21h1v1h-1z M-10,21h1v1h-1z M-4,21h1v1h-1z M1,21h1v1h-1z M3,21h1v1h-1z M4,21h1v1h-1z M6,21h1v1h-1z M7,21h1v1h-1z M8,21h1v1h-1z M9,21h1v1h-1z M-14,22h1v1h-1z M-8,22h1v1h-1z M-7,22h1v1h-1z M-6,22h1v1h-1z M-3,22h1v1h-1z M-1,22h1v1h-1z M1,22h1v1h-1z M4,22h1v1h-1z M6,22h1v1h-1z M8,22h1v1h-1z M-15,23h1v1h-1z M-14,23h1v1h-1z M-12,23h1v1h-1z M-9,23h1v1h-1z M-8,23h1v1h-1z M-7,23h1v1h-1z M-3,23h1v1h-1z M-2,23h1v1h-1z M0,23h1v1h-1z M2,23h1v1h-1z M3,23h1v1h-1z M4,23h1v1h-1z M5,23h1v1h-1z M-15,24h1v1h-1z M-12,24h1v1h-1z M-9,24h1v1h-1z M-8,24h1v1h-1z M-7,24h1v1h-1z M-2,24h1v1h-1z M1,24h1v1h-1z M4,24h1v1h-1z M5,24h1v1h-1z M7,24h1v1h-1z M-15,25h1v1h-1z M-14,25h1v1h-1z M-13,25h1v1h-1z M-10,25h1v1h-1z M-9,25h1v1h-1z M-7,25h1v1h-1z M-5,25h1v1h-1z M-4,25h1v1h-1z M-3,25h1v1h-1z M-2,25h1v1h-1z M0,25h1v1h-1z M3,25h1v1h-1z M6,25h1v1h-1z M7,25h1v1h-1z M9,25h1v1h-1z M-14,26h1v1h-1z M-11,26h1v1h-1z M-7,26h1v1h-1z M-6,26h1v1h-1z M-1,26h1v1h-1z M0,26h1v1h-1z M5,26h1v1h-1z M6,26h1v1h-1z M8,26h1v1h-1z M-12,27h1v1h-1z M-11,27h1v1h-1z M-10,27h1v1h-1z M-9,27h1v1h-1z M-8,27h1v1h-1z M-7,27h1v1h-1z M-6,27h1v1h-1z M-4,27h1v1h-1z M-3,27h1v1h-1z M-1,27h1v1h-1z M0,27h1v1h-1z M1,27h1v1h-1z M3,27h1v1h-1z M4,27h1v1h-1z M5,27h1v1h-1z M7,27h1v1h-1z M9,27h1v1h-1z" fill="#000000"/>
    <!-- left upper -->
    <path d="M-12,9h1v1h-1z M-11,9h1v1h-1z M-10,9h1v1h-1z M-9,9h1v1h-1z M-8,9h1v1h-1z M-7,9h1v1h-1z M-6,9h1v1h-1z M-4,9h1v1h-1z M-3,9h1v1h-1z M-1,9h1v1h-1z M0,9h1v1h-1z M1,9h1v1h-1z M3,9h1v1h-1z M4,9h1v1h-1z M5,9h1v1h-1z M7,9h1v1h-1z M-14,10h1v1h-1z M-11,10h1v1h-1z M-7,10h1v1h-1z M-6,10h1v1h-1z M-1,10h1v1h-1z M0,10h1v1h-1z M5,10h1v1h-1z M6,10h1v1h-1z M8,10h1v1h-1z M-15,11h1v1h-1z M-14,11h1v1h-1z M-13,11h1v1h-1z M-10,11h1v1h-1z M-9,11h1v1h-1z M-7,11h1v1h-1z M-5,11h1v1h-1z M-4,11h1v1h-1z M-3,11h1v1h-1z M-2,11h1v1h-1z M0,11h1v1h-1z M3,11h1v1h-1z M6,11h1v1h-1z M7,11h1v1h-1z M9,11h1v1h-1z M-15,12h1v1h-1z M-12,12h1v1h-1z M-9,12h1v1h-1z M-8,12h1v1h-1z M-7,12h1v1h-1z M-2,12h1v1h-1z M1,12h1v1h-1z M4,12h1v1h-1z M5,12h1v1h-1z M7,12h1v1h-1z M-15,13h1v1h-1z M-14,13h1v1h-1z M-12,13h1v1h-1z M-9,13h1v1h-1z M-8,13h1v1h-1z M-7,13h1v1h-1z M-3,13h1v1h-1z M-2,13h1v1h-1z M0,13h1v1h-1z M2,13h1v1h-1z M3,13h1v1h-1z M4,13h1v1h-1z M5,13h1v1h-1z M-14,14h1v1h-1z M-8,14h1v1h-1z M-7,14h1v1h-1z M-6,14h1v1h-1z M-3,14h1v1h-1z M-1,14h1v1h-1z M1,14h1v1h-1z M4,14h1v1h-1z M6,14h1v1h-1z M8,14h1v1h-1z M-15,15h1v1h-1z M-14,15h1v1h-1z M-13,15h1v1h-1z M-11,15h1v1h-1z M-10,15h1v1h-1z M-4,15h1v1h-1z M1,15h1v1h-1z M3,15h1v1h-1z M4,15h1v1h-1z M6,15h1v1h-1z M7,15h1v1h-1z M8,15h1v1h-1z M9,15h1v1h-1z M-15,16h1v1h-1z M-9,16h1v1h-1z M-3,16h1v1h-1z M1,16h1v1h-1z M2,16h1v1h-1z M4,16h1v1h-1z M8,16h1v1h-1z M9,16h1v1h-1z M-15,17h1v1h-1z M-14,17h1v1h-1z M-13,17h1v1h-1z M-12,17h1v1h-1z M-11,17h1v1h-1z M-9,17h1v1h-1z M-7,17h1v1h-1z M-6,17h1v1h-1z M-5,17h1v1h-1z M-3,17h1v1h-1z M-2,17h1v1h-1z M0,17h1v1h-1z M2,17h1v1h-1z M3,17h1v1h-1z M5,17h1v1h-1z M7,17h1v1h-1z M8,17h1v1h-1z" fill="#000000"/>
    <!-- left lower -->
    <path d="M-12,29h1v1h-1z M-11,29h1v1h-1z M-10,29h1v1h-1z M-9,29h1v1h-1z M-8,29h1v1h-1z M-7,29h1v1h-1z M-6,29h1v1h-1z M-4,29h1v1h-1z M-3,29h1v1h-1z M-1,29h1v1h-1z M0,29h1v1h-1z M1,29h1v1h-1z M3,29h1v1h-1z M4,29h1v1h-1z M5,29h1v1h-1z M7,29h1v1h-1z M9,29h1v1h-1z M-14,30h1v1h-1z M-11,30h1v1h-1z M-7,30h1v1h-1z M-6,30h1v1h-1z M-1,30h1v1h-1z M0,30h1v1h-1z M5,30h1v1h-1z M6,30h1v1h-1z M8,30h1v1h-1z M-15,31h1v1h-1z M-14,31h1v1h-1z M-13,31h1v1h-1z M-10,31h1v1h-1z M-9,31h1v1h-1z M-7,31h1v1h-1z M-5,31h1v1h-1z M-4,31h1v1h-1z M-3,31h1v1h-1z M-2,31h1v1h-1z M0,31h1v1h-1z M3,31h1v1h-1z M6,31h1v1h-1z M7,31h1v1h-1z M9,31h1v1h-1z M-15,32h1v1h-1z M-12,32h1v1h-1z M-9,32h1v1h-1z M-8,32h1v1h-1z M-7,32h1v1h-1z M-2,32h1v1h-1z M1,32h1v1h-1z M4,32h1v1h-1z M5,32h1v1h-1z M7,32h1v1h-1z M-15,33h1v1h-1z M-14,33h1v1h-1z M-12,33h1v1h-1z M-9,33h1v1h-1z M-8,33h1v1h-1z M-7,33h1v1h-1z M-3,33h1v1h-1z M-2,33h1v1h-1z M0,33h1v1h-1z M2,33h1v1h-1z M3,33h1v1h-1z M4,33h1v1h-1z M5,33h1v1h-1z M-14,34h1v1h-1z M-8,34h1v1h-1z M-7,34h1v1h-1z M-6,34h1v1h-1z M-3,34h1v1h-1z M-1,34h1v1h-1z M1,34h1v1h-1z M4,34h1v1h-1z M6,34h1v1h-1z M8,34h1v1h-1z M-15,35h1v1h-1z M-14,35h1v1h-1z M-13,35h1v1h-1z M-11,35h1v1h-1z M-10,35h1v1h-1z M-4,35h1v1h-1z M1,35h1v1h-1z M3,35h1v1h-1z M4,35h1v1h-1z M6,35h1v1h-1z M7,35h1v1h-1z M8,35h1v1h-1z M9,35h1v1h-1z M-15,36h1v1h-1z M-9,36h1v1h-1z M-3,36h1v1h-1z M1,36h1v1h-1z M2,36h1v1h-1z M4,36h1v1h-1z M8,36h1v1h-1z M9,36h1v1h-1z M-15,37h1v1h-1z M-14,37h1v1h-1z M-13,37h1v1h-1z M-12,37h1v1h-1z M-11,37h1v1h-1z M-9,37h1v1h-1z M-7,37h1v1h-1z M-6,37h1v1h-1z M-5,37h1v1h-1z M-3,37h1v1h-1z M-2,37h1v1h-1z M0,37h1v1h-1z M2,37h1v1h-1z M3,37h1v1h-1z M5,37h1v1h-1z M7,37h1v1h-1z M8,37h1v1h-1z" fill="#000000"/>
    <!-- left upper -->
    <path d="M-15,-1h1v1h-1z M-14,-1h1v1h-1z M-13,-1h1v1h-1z M-12,-1h1v1h-1z M-11,-1h1v1h-1z M-9,-1h1v1h-1z M-7,-1h1v1h-1z M-6,-1h1v1h-1z M-5,-1h1v1h-1z M-3,-1h1v1h-1z M-2,-1h1v1h-1z M-15,0h1v1h-1z M-9,0h1v1h-1z M-3,0h1v1h-1z M-15,1h1v1h-1z M-14,1h1v1h-1z M-13,1h1v1h-1z M-11,1h1v1h-1z M-10,1h1v1h-1z M-4,1h1v1h-1z M-14,2h1v1h-1z M-8,2h1v1h-1z M-7,2h1v1h-1z M-6,2h1v1h-1z M-3,2h1v1h-1z M-1,2h1v1h-1z M1,2h1v1h-1z M-15,3h1v1h-1z M-14,3h1v1h-1z M-12,3h1v1h-1z M-9,3h1v1h-1z M-8,3h1v1h-1z M-7,3h1v1h-1z M-3,3h1v1h-1z M-2,3h1v1h-1z M0,3h1v1h-1z M2,3h1v1h-1z M-15,4h1v1h-1z M-12,4h1v1h-1z M-9,4h1v1h-1z M-8,4h1v1h-1z M-7,4h1v1h-1z M-2,4h1v1h-1z M1,4h1v1h-1z M-15,5h1v1h-1z M-14,5h1v1h-1z M-13,5h1v1h-1z M-10,5h1v1h-1z M-9,5h1v1h-1z M-7,5h1v1h-1z M-5,5h1v1h-1z M-4,5h1v1h-1z M-3,5h1v1h-1z M-2,5h1v1h-1z M0,5h1v1h-1z M3,5h1v1h-1z M-14,6h1v1h-1z M-11,6h1v1h-1z M-7,6h1v1h-1z M-6,6h1v1h-1z M-1,6h1v1h-1z M0,6h1v1h-1z M5,6h1v1h-1z M-12,7h1v1h-1z M-11,7h1v1h-1z M-10,7h1v1h-1z M-9,7h1v1h-1z M-8,7h1v1h-1z M-7,7h1v1h-1z M-6,7h1v1h-1z M-4,7h1v1h-1z M-3,7h1v1h-1z M-1,7h1v1h-1z M0,7h1v1h-1z M1,7h1v1h-1z M3,7h1v1h-1z M4,7h1v1h-1z M5,7h1v1h-1z" fill="#000000"/>
    <!-- left lower -->
    <path d="M-15,39h1v1h-1z M-14,39h1v1h-1z M-13,39h1v1h-1z M-12,39h1v1h-1z M-11,39h1v1h-1z M-9,39h1v1h-1z M-7,39h1v1h-1z M-6,39h1v1h-1z M-5,39h1v1h-1z M-3,39h1v1h-1z M-2,39h1v1h-1z M0,39h1v1h-1z M2,39h1v1h-1z M3,39h1v1h-1z M5,39h1v1h-1z M-15,40h1v1h-1z M-9,40h1v1h-1z M-3,40h1v1h-1z M1,40h1v1h-1z M2,40h1v1h-1z M4,40h1v1h-1z M-15,41h1v1h-1z M-14,41h1v1h-1z M-13,41h1v1h-1z M-11,41h1v1h-1z M-10,41h1v1h-1z M-4,41h1v1h-1z M1,41h1v1h-1z M3,41h1v1h-1z M4,41h1v1h-1z M-14,42h1v1h-1z M-8,42h1v1h-1z M-7,42h1v1h-1z M-6,42h1v1h-1z M-3,42h1v1h-1z M-1,42h1v1h-1z M1,42h1v1h-1z M-15,43h1v1h-1z M-14,43h1v1h-1z M-12,43h1v1h-1z M-9,43h1v1h-1z M-8,43h1v1h-1z M-7,43h1v1h-1z M-3,43h1v1h-1z M-2,43h1v1h-1z M0,43h1v1h-1z M2,43h1v1h-1z M-15,44h1v1h-1z M-12,44h1v1h-1z M-9,44h1v1h-1z M-8,44h1v1h-1z M-7,44h1v1h-1z M-2,44h1v1h-1z M1,44h1v1h-1z M-15,45h1v1h-1z M-14,45h1v1h-1z M-13,45h1v1h-1z M-10,45h1v1h-1z M-9,45h1v1h-1z M-7,45h1v1h-1z M-5,45h1v1h-1z M-4,45h1v1h-1z M-3,45h1v1h-1z M-2,45h1v1h-1z M0,45h1v1h-1z M-14,46h1v1h-1z M-11,46h1v1h-1z M-7,46h1v1h-1z M-6,46h1v1h-1z M-1,46h1v1h-1z M-12,47h1v1h-1z M-11,47h1v1h-1z M-10,47h1v1h-1z M-9,47h1v1h-1z M-8,47h1v1h-1z M-7,47h1v1h-1z M-6,47h1v1h-1z M-4,47h1v1h-1z M-3,47h1v1h-1z" fill="#000000"/>
    <!-- right center -->
    <path d="M37,19h1v1h-1z M38,19h1v1h-1z M39,19h1v1h-1z M40,19h1v1h-1z M41,19h1v1h-1z M43,19h1v1h-1z M45,19h1v1h-1z M46,19h1v1h-1z M47,19h1v1h-1z M49,19h1v1h-1z M50,19h1v1h-1z M52,19h1v1h-1z M54,19h1v1h-1z M55,19h1v1h-1z M57,19h1v1h-1z M59,19h1v1h-1z M60,19h1v1h-1z M37,20h1v1h-1z M43,20h1v1h-1z M49,20h1v1h-1z M53,20h1v1h-1z M54,20h1v1h-1z M56,20h1v1h-1z M60,20h1v1h-1z M61,20h1v1h-1z M37,21h1v1h-1z M38,21h1v1h-1z M39,21h1v1h-1z M41,21h1v1h-1z M42,21h1v1h-1z M48,21h1v1h-1z M53,21h1v1h-1z M55,21h1v1h-1z M56,21h1v1h-1z M58,21h1v1h-1z M59,21h1v1h-1z M60,21h1v1h-1z M61,21h1v1h-1z M38,22h1v1h-1z M44,22h1v1h-1z M45,22h1v1h-1z M46,22h1v1h-1z M49,22h1v1h-1z M51,22h1v1h-1z M53,22h1v1h-1z M56,22h1v1h-1z M58,22h1v1h-1z M60,22h1v1h-1z M37,23h1v1h-1z M38,23h1v1h-1z M40,23h1v1h-1z M43,23h1v1h-1z M44,23h1v1h-1z M45,23h1v1h-1z M49,23h1v1h-1z M50,23h1v1h-1z M52,23h1v1h-1z M54,23h1v1h-1z M55,23h1v1h-1z M56,23h1v1h-1z M57,23h1v1h-1z M37,24h1v1h-1z M40,24h1v1h-1z M43,24h1v1h-1z M44,24h1v1h-1z M45,24h1v1h-1z M50,24h1v1h-1z M53,24h1v1h-1z M56,24h1v1h-1z M57,24h1v1h-1z M59,24h1v1h-1z M37,25h1v1h-1z M38,25h1v1h-1z M39,25h1v1h-1z M42,25h1v1h-1z M43,25h1v1h-1z M45,25h1v1h-1z M47,25h1v1h-1z M48,25h1v1h-1z M49,25h1v1h-1z M50,25h1v1h-1z M52,25h1v1h-1z M55,25h1v1h-1z M58,25h1v1h-1z M59,25h1v1h-1z M61,25h1v1h-1z M38,26h1v1h-1z M41,26h1v1h-1z M45,26h1v1h-1z M46,26h1v1h-1z M51,26h1v1h-1z M52,26h1v1h-1z M57,26h1v1h-1z M58,26h1v1h-1z M60,26h1v1h-1z M40,27h1v1h-1z M41,27h1v1h-1z M42,27h1v1h-1z M43,27h1v1h-1z M44,27h1v1h-1z M45,27h1v1h-1z M46,27h1v1h-1z M48,27h1v1h-1z M49,27h1v1h-1z M51,27h1v1h-1z M52,27h1v1h-1z M53,27h1v1h-1z M55,27h1v1h-1z M56,27h1v1h-1z M57,27h1v1h-1z M59,27h1v1h-1z M61,27h1v1h-1z M37,28h1v1h-1z M38,28h1v1h-1z M40,28h1v1h-1z M41,28h1v1h-1z M45,28h1v1h-1z M46,28h1v1h-1z M48,28h1v1h-1z M49,28h1v1h-1z M52,28h1v1h-1z M53,28h1v1h-1z M37,29h1v1h-1z M38,29h1v1h-1z M40,29h1v1h-1z M41,29h1v1h-1z M43,29h1v1h-1z M45,29h1v1h-1z M46,29h1v1h-1z M48,29h1v1h-1z M49,29h1v1h-1z M51,29h1v1h-1z M52,29h1v1h-1z M53,29h1v1h-1z M55,29h1v1h-1z M56,29h1v1h-1z M57,29h1v1h-1z M58,29h1v1h-1z M59,29h1v1h-1z M60,29h1v1h-1z M61,29h1v1h-1z M37,30h1v1h-1z M40,30h1v1h-1z M41,30h1v1h-1z M45,30h1v1h-1z M47,30h1v1h-1z M49,30h1v1h-1z M50,30h1v1h-1z M51,30h1v1h-1z M55,30h1v1h-1z M61,30h1v1h-1z M37,31h1v1h-1z M40,31h1v1h-1z M41,31h1v1h-1z M42,31h1v1h-1z M43,31h1v1h-1z M44,31h1v1h-1z M45,31h1v1h-1z M47,31h1v1h-1z M48,31h1v1h-1z M51,31h1v1h-1z M53,31h1v1h-1z M55,31h1v1h-1z M57,31h1v1h-1z M58,31h1v1h-1z M59,31h1v1h-1z M61,31h1v1h-1z M39,32h1v1h-1z M40,32h1v1h-1z M41,32h1v1h-1z M42,32h1v1h-1z M46,32h1v1h-1z M47,32h1v1h-1z M51,32h1v1h-1z M55,32h1v1h-1z M57,32h1v1h-1z M58,32h1v1h-1z M59,32h1v1h-1z M61,32h1v1h-1z M37,33h1v1h-1z M41,33h1v1h-1z M45,33h1v1h-1z M50,33h1v1h-1z M52,33h1v1h-1z M53,33h1v1h-1z M55,33h1v1h-1z M57,33h1v1h-1z M58,33h1v1h-1z M59,33h1v1h-1z M61,33h1v1h-1z M38,34h1v1h-1z M40,34h1v1h-1z M41,34h1v1h-1z M43,34h1v1h-1z M45,34h1v1h-1z M47,34h1v1h-1z M48,34h1v1h-1z M50,34h1v1h-1z M51,34h1v1h-1z M52,34h1v1h-1z M53,34h1v1h-1z M55,34h1v1h-1z M61,34h1v1h-1z M37,35h1v1h-1z M38,35h1v1h-1z M42,35h1v1h-1z M43,35h1v1h-1z M44,35h1v1h-1z M45,35h1v1h-1z M46,35h1v1h-1z M47,35h1v1h-1z M48,35h1v1h-1z M55,35h1v1h-1z M56,35h1v1h-1z M57,35h1v1h-1z M58,35h1v1h-1z M59,35h1v1h-1z M60,35h1v1h-1z M61,35h1v1h-1z" fill="#000000"/>
    <!-- right upper -->
    <path d="M46,1h1v1h-1z M47,1h1v1h-1z M48,1h1v1h-1z M55,1h1v1h-1z M56,1h1v1h-1z M57,1h1v1h-1z M58,1h1v1h-1z M59,1h1v1h-1z M60,1h1v1h-1z M61,1h1v1h-1z M45,2h1v1h-1z M47,2h1v1h-1z M48,2h1v1h-1z M50,2h1v1h-1z M51,2h1v1h-1z M52,2h1v1h-1z M53,2h1v1h-1z M55,2h1v1h-1z M61,2h1v1h-1z M45,3h1v1h-1z M50,3h1v1h-1z M52,3h1v1h-1z M53,3h1v1h-1z M55,3h1v1h-1z M57,3h1v1h-1z M58,3h1v1h-1z M59,3h1v1h-1z M61,3h1v1h-1z M46,4h1v1h-1z M47,4h1v1h-1z M51,4h1v1h-1z M55,4h1v1h-1z M57,4h1v1h-1z M58,4h1v1h-1z M59,4h1v1h-1z M61,4h1v1h-1z M42,5h1v1h-1z M43,5h1v1h-1z M44,5h1v1h-1z M45,5h1v1h-1z M47,5h1v1h-1z M48,5h1v1h-1z M51,5h1v1h-1z M53,5h1v1h-1z M55,5h1v1h-1z M57,5h1v1h-1z M58,5h1v1h-1z M59,5h1v1h-1z M61,5h1v1h-1z M41,6h1v1h-1z M45,6h1v1h-1z M47,6h1v1h-1z M49,6h1v1h-1z M50,6h1v1h-1z M51,6h1v1h-1z M55,6h1v1h-1z M61,6h1v1h-1z M40,7h1v1h-1z M41,7h1v1h-1z M43,7h1v1h-1z M45,7h1v1h-1z M46,7h1v1h-1z M48,7h1v1h-1z M49,7h1v1h-1z M51,7h1v1h-1z M52,7h1v1h-1z M53,7h1v1h-1z M55,7h1v1h-1z M56,7h1v1h-1z M57,7h1v1h-1z M58,7h1v1h-1z M59,7h1v1h-1z M60,7h1v1h-1z M61,7h1v1h-1z M40,8h1v1h-1z M41,8h1v1h-1z M45,8h1v1h-1z M46,8h1v1h-1z M48,8h1v1h-1z M49,8h1v1h-1z M52,8h1v1h-1z M53,8h1v1h-1z M40,9h1v1h-1z M41,9h1v1h-1z M42,9h1v1h-1z M43,9h1v1h-1z M44,9h1v1h-1z M45,9h1v1h-1z M46,9h1v1h-1z M48,9h1v1h-1z M49,9h1v1h-1z M51,9h1v1h-1z M52,9h1v1h-1z M53,9h1v1h-1z M55,9h1v1h-1z M56,9h1v1h-1z M57,9h1v1h-1z M59,9h1v1h-1z M61,9h1v1h-1z M38,10h1v1h-1z M41,10h1v1h-1z M45,10h1v1h-1z M46,10h1v1h-1z M51,10h1v1h-1z M52,10h1v1h-1z M57,10h1v1h-1z M58,10h1v1h-1z M60,10h1v1h-1z M37,11h1v1h-1z M38,11h1v1h-1z M39,11h1v1h-1z M42,11h1v1h-1z M43,11h1v1h-1z M45,11h1v1h-1z M47,11h1v1h-1z M48,11h1v1h-1z M49,11h1v1h-1z M50,11h1v1h-1z M52,11h1v1h-1z M55,11h1v1h-1z M58,11h1v1h-1z M59,11h1v1h-1z M61,11h1v1h-1z M37,12h1v1h-1z M40,12h1v1h-1z M43,12h1v1h-1z M44,12h1v1h-1z M45,12h1v1h-1z M50,12h1v1h-1z M53,12h1v1h-1z M56,12h1v1h-1z M57,12h1v1h-1z M59,12h1v1h-1z M37,13h1v1h-1z M38,13h1v1h-1z M40,13h1v1h-1z M43,13h1v1h-1z M44,13h1v1h-1z M45,13h1v1h-1z M49,13h1v1h-1z M50,13h1v1h-1z M52,13h1v1h-1z M54,13h1v1h-1z M55,13h1v1h-1z M56,13h1v1h-1z M57,13h1v1h-1z M38,14h1v1h-1z M44,14h1v1h-1z M45,14h1v1h-1z M46,14h1v1h-1z M49,14h1v1h-1z M51,14h1v1h-1z M53,14h1v1h-1z M56,14h1v1h-1z M58,14h1v1h-1z M60,14h1v1h-1z M37,15h1v1h-1z M38,15h1v1h-1z M39,15h1v1h-1z M41,15h1v1h-1z M42,15h1v1h-1z M48,15h1v1h-1z M53,15h1v1h-1z M55,15h1v1h-1z M56,15h1v1h-1z M58,15h1v1h-1z M59,15h1v1h-1z M60,15h1v1h-1z M61,15h1v1h-1z M37,16h1v1h-1z M43,16h1v1h-1z M49,16h1v1h-1z M53,16h1v1h-1z M54,16h1v1h-1z M56,16h1v1h-1z M60,16h1v1h-1z M61,16h1v1h-1z M37,17h1v1h-1z M38,17h1v1h-1z M39,17h1v1h-1z M40,17h1v1h-1z M41,17h1v1h-1z M43,17h1v1h-1z M45,17h1v1h-1z M46,17h1v1h-1z M47,17h1v1h-1z M49,17h1v1h-1z M50,17h1v1h-1z M52,17h1v1h-1z M54,17h1v1h-1z M55,17h1v1h-1z M57,17h1v1h-1z M59,17h1v1h-1z M60,17h1v1h-1z" fill="#000000"/>
    <!-- right lower -->
    <path d="M38,37h1v1h-1z M42,37h1v1h-1z M43,37h1v1h-1z M44,37h1v1h-1z M45,37h1v1h-1z M46,37h1v1h-1z M47,37h1v1h-1z M48,37h1v1h-1z M55,37h1v1h-1z M56,37h1v1h-1z M57,37h1v1h-1z M58,37h1v1h-1z M59,37h1v1h-1z M60,37h1v1h-1z M61,37h1v1h-1z M40,38h1v1h-1z M41,38h1v1h-1z M43,38h1v1h-1z M45,38h1v1h-1z M47,38h1v1h-1z M48,38h1v1h-1z M50,38h1v1h-1z M51,38h1v1h-1z M52,38h1v1h-1z M53,38h1v1h-1z M55,38h1v1h-1z M61,38h1v1h-1z M41,39h1v1h-1z M45,39h1v1h-1z M50,39h1v1h-1z M52,39h1v1h-1z M53,39h1v1h-1z M55,39h1v1h-1z M57,39h1v1h-1z M58,39h1v1h-1z M59,39h1v1h-1z M61,39h1v1h-1z M41,40h1v1h-1z M42,40h1v1h-1z M46,40h1v1h-1z M47,40h1v1h-1z M51,40h1v1h-1z M55,40h1v1h-1z M57,40h1v1h-1z M58,40h1v1h-1z M59,40h1v1h-1z M61,40h1v1h-1z M42,41h1v1h-1z M43,41h1v1h-1z M44,41h1v1h-1z M45,41h1v1h-1z M47,41h1v1h-1z M48,41h1v1h-1z M51,41h1v1h-1z M53,41h1v1h-1z M55,41h1v1h-1z M57,41h1v1h-1z M58,41h1v1h-1z M59,41h1v1h-1z M61,41h1v1h-1z M45,42h1v1h-1z M47,42h1v1h-1z M49,42h1v1h-1z M50,42h1v1h-1z M51,42h1v1h-1z M55,42h1v1h-1z M61,42h1v1h-1z M45,43h1v1h-1z M46,43h1v1h-1z M48,43h1v1h-1z M49,43h1v1h-1z M51,43h1v1h-1z M52,43h1v1h-1z M53,43h1v1h-1z M55,43h1v1h-1z M56,43h1v1h-1z M57,43h1v1h-1z M58,43h1v1h-1z M59,43h1v1h-1z M60,43h1v1h-1z M61,43h1v1h-1z M45,44h1v1h-1z M46,44h1v1h-1z M48,44h1v1h-1z M49,44h1v1h-1z M52,44h1v1h-1z M53,44h1v1h-1z M46,45h1v1h-1z M48,45h1v1h-1z M49,45h1v1h-1z M51,45h1v1h-1z M52,45h1v1h-1z M53,45h1v1h-1z M55,45h1v1h-1z M56,45h1v1h-1z M57,45h1v1h-1z M59,45h1v1h-1z M61,45h1v1h-1z M51,46h1v1h-1z M52,46h1v1h-1z M57,46h1v1h-1z M58,46h1v1h-1z M60,46h1v1h-1z M48,47h1v1h-1z M49,47h1v1h-1z M50,47h1v1h-1z M52,47h1v1h-1z M55,47h1v1h-1z M58,47h1v1h-1z M59,47h1v1h-1z M61,47h1v1h-1z M50,48h1v1h-1z M53,48h1v1h-1z M56,48h1v1h-1z M57,48h1v1h-1z M59,48h1v1h-1z M50,49h1v1h-1z M52,49h1v1h-1z M54,49h1v1h-1z M55,49h1v1h-1z M56,49h1v1h-1z M57,49h1v1h-1z M51,50h1v1h-1z M53,50h1v1h-1z M56,50h1v1h-1z M58,50h1v1h-1z M60,50h1v1h-1z M53,51h1v1h-1z M55,51h1v1h-1z M56,51h1v1h-1z M58,51h1v1h-1z M59,51h1v1h-1z M60,51h1v1h-1z M61,51h1v1h-1z M53,52h1v1h-1z M54,52h1v1h-1z M56,52h1v1h-1z M60,52h1v1h-1z M61,52h1v1h-1z M54,53h1v1h-1z M55,53h1v1h-1z M57,53h1v1h-1z M59,53h1v1h-1z M60,53h1v1h-1z" fill="#000000"/>
  </g>
  <circle cx="23.5" cy="23.5" r="20.5" fill="none" stroke="#000000" stroke-width="2"/>
</svg>